<mxfile host="app.diagrams.net" agent="Mozilla/5.0 (Windows NT 10.0; Win64; x64) AppleWebKit/537.36 (KHTML, like Gecko) Chrome/126.0.0.0 YaBrowser/24.7.0.0 Safari/537.36" version="24.7.16">
  <diagram id="C5RBs43oDa-KdzZeNtuy" name="Page-1">
    <mxGraphModel dx="1728" dy="953" grid="1" gridSize="10" guides="1" tooltips="1" connect="1" arrows="1" fold="1" page="1" pageScale="1" pageWidth="827" pageHeight="1169" math="0" shadow="0">
      <root>
        <mxCell id="WIyWlLk6GJQsqaUBKTNV-0" />
        <mxCell id="WIyWlLk6GJQsqaUBKTNV-1" parent="WIyWlLk6GJQsqaUBKTNV-0" />
        <mxCell id="2qQD_KfwbI6GBeQ7GPVd-27" style="edgeStyle=orthogonalEdgeStyle;rounded=0;orthogonalLoop=1;jettySize=auto;html=1;" edge="1" parent="WIyWlLk6GJQsqaUBKTNV-1" source="2qQD_KfwbI6GBeQ7GPVd-20" target="2qQD_KfwbI6GBeQ7GPVd-28">
          <mxGeometry relative="1" as="geometry">
            <mxPoint x="290" y="80" as="targetPoint" />
          </mxGeometry>
        </mxCell>
        <mxCell id="2qQD_KfwbI6GBeQ7GPVd-20" value="" style="ellipse;whiteSpace=wrap;html=1;" vertex="1" parent="WIyWlLk6GJQsqaUBKTNV-1">
          <mxGeometry x="40" y="40" width="120" height="80" as="geometry" />
        </mxCell>
        <mxCell id="2qQD_KfwbI6GBeQ7GPVd-21" value="Клиент" style="text;html=1;align=center;verticalAlign=middle;whiteSpace=wrap;rounded=0;" vertex="1" parent="WIyWlLk6GJQsqaUBKTNV-1">
          <mxGeometry x="70" y="65" width="60" height="30" as="geometry" />
        </mxCell>
        <mxCell id="2qQD_KfwbI6GBeQ7GPVd-30" style="edgeStyle=orthogonalEdgeStyle;rounded=0;orthogonalLoop=1;jettySize=auto;html=1;" edge="1" parent="WIyWlLk6GJQsqaUBKTNV-1" source="2qQD_KfwbI6GBeQ7GPVd-22" target="2qQD_KfwbI6GBeQ7GPVd-31">
          <mxGeometry relative="1" as="geometry">
            <mxPoint x="620" y="80" as="targetPoint" />
          </mxGeometry>
        </mxCell>
        <mxCell id="2qQD_KfwbI6GBeQ7GPVd-22" value="" style="ellipse;whiteSpace=wrap;html=1;" vertex="1" parent="WIyWlLk6GJQsqaUBKTNV-1">
          <mxGeometry x="414" y="40" width="120" height="80" as="geometry" />
        </mxCell>
        <mxCell id="2qQD_KfwbI6GBeQ7GPVd-23" value="Сотрудник" style="text;html=1;align=center;verticalAlign=middle;whiteSpace=wrap;rounded=0;" vertex="1" parent="WIyWlLk6GJQsqaUBKTNV-1">
          <mxGeometry x="444" y="65" width="60" height="30" as="geometry" />
        </mxCell>
        <mxCell id="2qQD_KfwbI6GBeQ7GPVd-33" style="edgeStyle=orthogonalEdgeStyle;rounded=0;orthogonalLoop=1;jettySize=auto;html=1;" edge="1" parent="WIyWlLk6GJQsqaUBKTNV-1" source="2qQD_KfwbI6GBeQ7GPVd-24">
          <mxGeometry relative="1" as="geometry">
            <mxPoint x="750" y="185" as="targetPoint" />
          </mxGeometry>
        </mxCell>
        <mxCell id="2qQD_KfwbI6GBeQ7GPVd-24" value="" style="ellipse;whiteSpace=wrap;html=1;" vertex="1" parent="WIyWlLk6GJQsqaUBKTNV-1">
          <mxGeometry x="690" y="40" width="120" height="80" as="geometry" />
        </mxCell>
        <mxCell id="2qQD_KfwbI6GBeQ7GPVd-25" value="Система" style="text;html=1;align=center;verticalAlign=middle;whiteSpace=wrap;rounded=0;" vertex="1" parent="WIyWlLk6GJQsqaUBKTNV-1">
          <mxGeometry x="720" y="65" width="60" height="30" as="geometry" />
        </mxCell>
        <mxCell id="2qQD_KfwbI6GBeQ7GPVd-29" style="edgeStyle=orthogonalEdgeStyle;rounded=0;orthogonalLoop=1;jettySize=auto;html=1;" edge="1" parent="WIyWlLk6GJQsqaUBKTNV-1" source="2qQD_KfwbI6GBeQ7GPVd-28">
          <mxGeometry relative="1" as="geometry">
            <mxPoint x="410" y="80" as="targetPoint" />
          </mxGeometry>
        </mxCell>
        <mxCell id="2qQD_KfwbI6GBeQ7GPVd-28" value="Выбор кассеты" style="text;html=1;align=center;verticalAlign=middle;whiteSpace=wrap;rounded=0;" vertex="1" parent="WIyWlLk6GJQsqaUBKTNV-1">
          <mxGeometry x="260" y="65" width="60" height="30" as="geometry" />
        </mxCell>
        <mxCell id="2qQD_KfwbI6GBeQ7GPVd-32" style="edgeStyle=orthogonalEdgeStyle;rounded=0;orthogonalLoop=1;jettySize=auto;html=1;" edge="1" parent="WIyWlLk6GJQsqaUBKTNV-1" source="2qQD_KfwbI6GBeQ7GPVd-31">
          <mxGeometry relative="1" as="geometry">
            <mxPoint x="700" y="80" as="targetPoint" />
          </mxGeometry>
        </mxCell>
        <mxCell id="2qQD_KfwbI6GBeQ7GPVd-31" value="Проверка наличия" style="text;html=1;align=center;verticalAlign=middle;whiteSpace=wrap;rounded=0;" vertex="1" parent="WIyWlLk6GJQsqaUBKTNV-1">
          <mxGeometry x="590" y="65" width="60" height="30" as="geometry" />
        </mxCell>
        <mxCell id="2qQD_KfwbI6GBeQ7GPVd-37" style="edgeStyle=orthogonalEdgeStyle;rounded=0;orthogonalLoop=1;jettySize=auto;html=1;" edge="1" parent="WIyWlLk6GJQsqaUBKTNV-1" source="2qQD_KfwbI6GBeQ7GPVd-35" target="2qQD_KfwbI6GBeQ7GPVd-38">
          <mxGeometry relative="1" as="geometry">
            <mxPoint x="610" y="220" as="targetPoint" />
          </mxGeometry>
        </mxCell>
        <mxCell id="2qQD_KfwbI6GBeQ7GPVd-35" value="" style="ellipse;whiteSpace=wrap;html=1;" vertex="1" parent="WIyWlLk6GJQsqaUBKTNV-1">
          <mxGeometry x="690" y="180" width="120" height="80" as="geometry" />
        </mxCell>
        <mxCell id="2qQD_KfwbI6GBeQ7GPVd-36" value="Клиент" style="text;html=1;align=center;verticalAlign=middle;whiteSpace=wrap;rounded=0;" vertex="1" parent="WIyWlLk6GJQsqaUBKTNV-1">
          <mxGeometry x="720" y="205" width="60" height="30" as="geometry" />
        </mxCell>
        <mxCell id="2qQD_KfwbI6GBeQ7GPVd-39" style="edgeStyle=orthogonalEdgeStyle;rounded=0;orthogonalLoop=1;jettySize=auto;html=1;" edge="1" parent="WIyWlLk6GJQsqaUBKTNV-1" source="2qQD_KfwbI6GBeQ7GPVd-38">
          <mxGeometry relative="1" as="geometry">
            <mxPoint x="480" y="220" as="targetPoint" />
          </mxGeometry>
        </mxCell>
        <mxCell id="2qQD_KfwbI6GBeQ7GPVd-38" value="Информация&amp;nbsp;&lt;br&gt;о себе" style="text;html=1;align=center;verticalAlign=middle;whiteSpace=wrap;rounded=0;" vertex="1" parent="WIyWlLk6GJQsqaUBKTNV-1">
          <mxGeometry x="580" y="205" width="60" height="30" as="geometry" />
        </mxCell>
        <mxCell id="2qQD_KfwbI6GBeQ7GPVd-43" style="edgeStyle=orthogonalEdgeStyle;rounded=0;orthogonalLoop=1;jettySize=auto;html=1;" edge="1" parent="WIyWlLk6GJQsqaUBKTNV-1" source="2qQD_KfwbI6GBeQ7GPVd-41" target="2qQD_KfwbI6GBeQ7GPVd-44">
          <mxGeometry relative="1" as="geometry">
            <mxPoint x="290" y="220" as="targetPoint" />
          </mxGeometry>
        </mxCell>
        <mxCell id="2qQD_KfwbI6GBeQ7GPVd-41" value="" style="ellipse;whiteSpace=wrap;html=1;" vertex="1" parent="WIyWlLk6GJQsqaUBKTNV-1">
          <mxGeometry x="360" y="180" width="120" height="80" as="geometry" />
        </mxCell>
        <mxCell id="2qQD_KfwbI6GBeQ7GPVd-42" value="Сотрудник" style="text;html=1;align=center;verticalAlign=middle;whiteSpace=wrap;rounded=0;" vertex="1" parent="WIyWlLk6GJQsqaUBKTNV-1">
          <mxGeometry x="390" y="205" width="60" height="30" as="geometry" />
        </mxCell>
        <mxCell id="2qQD_KfwbI6GBeQ7GPVd-45" style="edgeStyle=orthogonalEdgeStyle;rounded=0;orthogonalLoop=1;jettySize=auto;html=1;" edge="1" parent="WIyWlLk6GJQsqaUBKTNV-1" source="2qQD_KfwbI6GBeQ7GPVd-44">
          <mxGeometry relative="1" as="geometry">
            <mxPoint x="180" y="220" as="targetPoint" />
          </mxGeometry>
        </mxCell>
        <mxCell id="2qQD_KfwbI6GBeQ7GPVd-44" value="Внесение в систему" style="text;html=1;align=center;verticalAlign=middle;whiteSpace=wrap;rounded=0;" vertex="1" parent="WIyWlLk6GJQsqaUBKTNV-1">
          <mxGeometry x="260" y="205" width="60" height="30" as="geometry" />
        </mxCell>
        <mxCell id="2qQD_KfwbI6GBeQ7GPVd-48" style="edgeStyle=orthogonalEdgeStyle;rounded=0;orthogonalLoop=1;jettySize=auto;html=1;" edge="1" parent="WIyWlLk6GJQsqaUBKTNV-1" source="2qQD_KfwbI6GBeQ7GPVd-46">
          <mxGeometry relative="1" as="geometry">
            <mxPoint x="120" y="330" as="targetPoint" />
          </mxGeometry>
        </mxCell>
        <mxCell id="2qQD_KfwbI6GBeQ7GPVd-46" value="" style="ellipse;whiteSpace=wrap;html=1;" vertex="1" parent="WIyWlLk6GJQsqaUBKTNV-1">
          <mxGeometry x="60" y="180" width="120" height="80" as="geometry" />
        </mxCell>
        <mxCell id="2qQD_KfwbI6GBeQ7GPVd-47" value="Система" style="text;html=1;align=center;verticalAlign=middle;whiteSpace=wrap;rounded=0;" vertex="1" parent="WIyWlLk6GJQsqaUBKTNV-1">
          <mxGeometry x="90" y="205" width="60" height="30" as="geometry" />
        </mxCell>
        <mxCell id="2qQD_KfwbI6GBeQ7GPVd-51" style="edgeStyle=orthogonalEdgeStyle;rounded=0;orthogonalLoop=1;jettySize=auto;html=1;" edge="1" parent="WIyWlLk6GJQsqaUBKTNV-1" source="2qQD_KfwbI6GBeQ7GPVd-49" target="2qQD_KfwbI6GBeQ7GPVd-52">
          <mxGeometry relative="1" as="geometry">
            <mxPoint x="250" y="370" as="targetPoint" />
          </mxGeometry>
        </mxCell>
        <mxCell id="2qQD_KfwbI6GBeQ7GPVd-49" value="" style="ellipse;whiteSpace=wrap;html=1;" vertex="1" parent="WIyWlLk6GJQsqaUBKTNV-1">
          <mxGeometry x="60" y="330" width="120" height="80" as="geometry" />
        </mxCell>
        <mxCell id="2qQD_KfwbI6GBeQ7GPVd-50" value="Клиент" style="text;html=1;align=center;verticalAlign=middle;whiteSpace=wrap;rounded=0;" vertex="1" parent="WIyWlLk6GJQsqaUBKTNV-1">
          <mxGeometry x="90" y="355" width="60" height="30" as="geometry" />
        </mxCell>
        <mxCell id="2qQD_KfwbI6GBeQ7GPVd-53" style="edgeStyle=orthogonalEdgeStyle;rounded=0;orthogonalLoop=1;jettySize=auto;html=1;" edge="1" parent="WIyWlLk6GJQsqaUBKTNV-1" source="2qQD_KfwbI6GBeQ7GPVd-52">
          <mxGeometry relative="1" as="geometry">
            <mxPoint x="350" y="370" as="targetPoint" />
          </mxGeometry>
        </mxCell>
        <mxCell id="2qQD_KfwbI6GBeQ7GPVd-52" value="Оплата&amp;nbsp;&lt;br&gt;Аренды" style="text;html=1;align=center;verticalAlign=middle;whiteSpace=wrap;rounded=0;" vertex="1" parent="WIyWlLk6GJQsqaUBKTNV-1">
          <mxGeometry x="220" y="355" width="60" height="30" as="geometry" />
        </mxCell>
        <mxCell id="2qQD_KfwbI6GBeQ7GPVd-56" style="edgeStyle=orthogonalEdgeStyle;rounded=0;orthogonalLoop=1;jettySize=auto;html=1;" edge="1" parent="WIyWlLk6GJQsqaUBKTNV-1" source="2qQD_KfwbI6GBeQ7GPVd-54" target="2qQD_KfwbI6GBeQ7GPVd-57">
          <mxGeometry relative="1" as="geometry">
            <mxPoint x="530" y="370" as="targetPoint" />
          </mxGeometry>
        </mxCell>
        <mxCell id="2qQD_KfwbI6GBeQ7GPVd-54" value="" style="ellipse;whiteSpace=wrap;html=1;" vertex="1" parent="WIyWlLk6GJQsqaUBKTNV-1">
          <mxGeometry x="350" y="330" width="120" height="80" as="geometry" />
        </mxCell>
        <mxCell id="2qQD_KfwbI6GBeQ7GPVd-55" value="Сотрудник" style="text;html=1;align=center;verticalAlign=middle;whiteSpace=wrap;rounded=0;" vertex="1" parent="WIyWlLk6GJQsqaUBKTNV-1">
          <mxGeometry x="380" y="355" width="60" height="30" as="geometry" />
        </mxCell>
        <mxCell id="2qQD_KfwbI6GBeQ7GPVd-58" style="edgeStyle=orthogonalEdgeStyle;rounded=0;orthogonalLoop=1;jettySize=auto;html=1;" edge="1" parent="WIyWlLk6GJQsqaUBKTNV-1" source="2qQD_KfwbI6GBeQ7GPVd-57">
          <mxGeometry relative="1" as="geometry">
            <mxPoint x="630" y="370" as="targetPoint" />
          </mxGeometry>
        </mxCell>
        <mxCell id="2qQD_KfwbI6GBeQ7GPVd-57" value="Регистрирует&lt;br&gt;Оплату" style="text;html=1;align=center;verticalAlign=middle;whiteSpace=wrap;rounded=0;" vertex="1" parent="WIyWlLk6GJQsqaUBKTNV-1">
          <mxGeometry x="500" y="355" width="60" height="30" as="geometry" />
        </mxCell>
        <mxCell id="2qQD_KfwbI6GBeQ7GPVd-61" style="edgeStyle=orthogonalEdgeStyle;rounded=0;orthogonalLoop=1;jettySize=auto;html=1;" edge="1" parent="WIyWlLk6GJQsqaUBKTNV-1" source="2qQD_KfwbI6GBeQ7GPVd-59">
          <mxGeometry relative="1" as="geometry">
            <mxPoint x="780" y="480" as="targetPoint" />
          </mxGeometry>
        </mxCell>
        <mxCell id="2qQD_KfwbI6GBeQ7GPVd-59" value="" style="ellipse;whiteSpace=wrap;html=1;" vertex="1" parent="WIyWlLk6GJQsqaUBKTNV-1">
          <mxGeometry x="630" y="330" width="120" height="80" as="geometry" />
        </mxCell>
        <mxCell id="2qQD_KfwbI6GBeQ7GPVd-60" value="Система" style="text;html=1;align=center;verticalAlign=middle;whiteSpace=wrap;rounded=0;" vertex="1" parent="WIyWlLk6GJQsqaUBKTNV-1">
          <mxGeometry x="660" y="355" width="60" height="30" as="geometry" />
        </mxCell>
        <mxCell id="2qQD_KfwbI6GBeQ7GPVd-64" style="edgeStyle=orthogonalEdgeStyle;rounded=0;orthogonalLoop=1;jettySize=auto;html=1;" edge="1" parent="WIyWlLk6GJQsqaUBKTNV-1" source="2qQD_KfwbI6GBeQ7GPVd-62" target="2qQD_KfwbI6GBeQ7GPVd-65">
          <mxGeometry relative="1" as="geometry">
            <mxPoint x="620" y="520" as="targetPoint" />
          </mxGeometry>
        </mxCell>
        <mxCell id="2qQD_KfwbI6GBeQ7GPVd-62" value="" style="ellipse;whiteSpace=wrap;html=1;" vertex="1" parent="WIyWlLk6GJQsqaUBKTNV-1">
          <mxGeometry x="700" y="480" width="120" height="80" as="geometry" />
        </mxCell>
        <mxCell id="2qQD_KfwbI6GBeQ7GPVd-63" value="Сотрудник" style="text;html=1;align=center;verticalAlign=middle;whiteSpace=wrap;rounded=0;" vertex="1" parent="WIyWlLk6GJQsqaUBKTNV-1">
          <mxGeometry x="730" y="505" width="60" height="30" as="geometry" />
        </mxCell>
        <mxCell id="2qQD_KfwbI6GBeQ7GPVd-66" style="edgeStyle=orthogonalEdgeStyle;rounded=0;orthogonalLoop=1;jettySize=auto;html=1;" edge="1" parent="WIyWlLk6GJQsqaUBKTNV-1" source="2qQD_KfwbI6GBeQ7GPVd-65">
          <mxGeometry relative="1" as="geometry">
            <mxPoint x="520" y="520" as="targetPoint" />
          </mxGeometry>
        </mxCell>
        <mxCell id="2qQD_KfwbI6GBeQ7GPVd-65" value="Выдает кассету" style="text;html=1;align=center;verticalAlign=middle;whiteSpace=wrap;rounded=0;" vertex="1" parent="WIyWlLk6GJQsqaUBKTNV-1">
          <mxGeometry x="590" y="505" width="60" height="30" as="geometry" />
        </mxCell>
        <mxCell id="2qQD_KfwbI6GBeQ7GPVd-67" value="" style="ellipse;whiteSpace=wrap;html=1;" vertex="1" parent="WIyWlLk6GJQsqaUBKTNV-1">
          <mxGeometry x="400" y="480" width="120" height="80" as="geometry" />
        </mxCell>
        <mxCell id="2qQD_KfwbI6GBeQ7GPVd-68" value="Клиент" style="text;html=1;align=center;verticalAlign=middle;whiteSpace=wrap;rounded=0;" vertex="1" parent="WIyWlLk6GJQsqaUBKTNV-1">
          <mxGeometry x="430" y="505" width="60" height="30" as="geometry" />
        </mxCell>
      </root>
    </mxGraphModel>
  </diagram>
</mxfile>
